<mxfile host="app.diagrams.net" modified="2023-12-14T19:20:40.678Z" agent="Mozilla/5.0 (Windows NT 10.0; Win64; x64) AppleWebKit/537.36 (KHTML, like Gecko) Chrome/120.0.0.0 Safari/537.36" version="22.1.9" etag="FR_GgiKhxEwEDmNTMCRr" type="github">
  <diagram name="PÃ¡gina-1" id="zZ_b0R57iymQZUDfH1gW">
    <mxGraphModel>
      <root>
        <mxCell id="0" />
        <mxCell id="1" parent="0" />
      </root>
    </mxGraphModel>
  </diagram>
</mxfile>
